<svg xmlns="http://www.w3.org/2000/svg" enable-background="new 0 0 512 512" viewBox="0 0 512 512" id="calculator"><linearGradient id="a" x1="70.053" x2="441.947" y1="441.947" y2="70.053" gradientUnits="userSpaceOnUse"><stop offset="0" stop-color="#5ebce5"></stop><stop offset=".518" stop-color="#b678e6"></stop><stop offset="1" stop-color="#e25b61"></stop></linearGradient><path fill="url(#a)" d="M280,368h24v16h-24V368z M280,448h24v-16h-24V448z M136,320h24v-16h-24V320z M280,256h24v-16h-24V256
	z M280,320h24v-16h-24V320z M352,448h24v-80h-24V448z M208,256h24v-16h-24V256z M208,448h24v-16h-24V448z M136,256h24v-16h-24V256z
	 M208,384h24v-16h-24V384z M208,320h24v-16h-24V320z M352,256h24v-16h-24V256z M136,384h24v-16h-24V384z M408,39v434
	c0,3.86-3.141,7-7,7H111c-3.859,0-7-3.14-7-7V39c0-3.86,3.141-7,7-7h290C404.859,32,408,35.14,408,39z M176,424c0-4.418-3.582-8-8-8
	h-40c-4.418,0-8,3.582-8,8v32c0,4.418,3.582,8,8,8h40c4.418,0,8-3.582,8-8V424z M176,360c0-4.418-3.582-8-8-8h-40
	c-4.418,0-8,3.582-8,8v32c0,4.418,3.582,8,8,8h40c4.418,0,8-3.582,8-8V360z M176,296c0-4.418-3.582-8-8-8h-40c-4.418,0-8,3.582-8,8
	v32c0,4.418,3.582,8,8,8h40c4.418,0,8-3.582,8-8V296z M176,232c0-4.418-3.582-8-8-8h-40c-4.418,0-8,3.582-8,8v32
	c0,4.418,3.582,8,8,8h40c4.418,0,8-3.582,8-8V232z M176,200c0-4.418-3.582-8-8-8h-40c-4.418,0-8,3.582-8,8s3.582,8,8,8h40
	C172.418,208,176,204.418,176,200z M248,424c0-4.418-3.582-8-8-8h-40c-4.418,0-8,3.582-8,8v32c0,4.418,3.582,8,8,8h40
	c4.418,0,8-3.582,8-8V424z M248,360c0-4.418-3.582-8-8-8h-40c-4.418,0-8,3.582-8,8v32c0,4.418,3.582,8,8,8h40c4.418,0,8-3.582,8-8
	V360z M248,296c0-4.418-3.582-8-8-8h-40c-4.418,0-8,3.582-8,8v32c0,4.418,3.582,8,8,8h40c4.418,0,8-3.582,8-8V296z M248,232
	c0-4.418-3.582-8-8-8h-40c-4.418,0-8,3.582-8,8v32c0,4.418,3.582,8,8,8h40c4.418,0,8-3.582,8-8V232z M248,200c0-4.418-3.582-8-8-8
	h-40c-4.418,0-8,3.582-8,8s3.582,8,8,8h40C244.418,208,248,204.418,248,200z M320,424c0-4.418-3.582-8-8-8h-40c-4.418,0-8,3.582-8,8
	v32c0,4.418,3.582,8,8,8h40c4.418,0,8-3.582,8-8V424z M320,360c0-4.418-3.582-8-8-8h-40c-4.418,0-8,3.582-8,8v32
	c0,4.418,3.582,8,8,8h40c4.418,0,8-3.582,8-8V360z M320,296c0-4.418-3.582-8-8-8h-40c-4.418,0-8,3.582-8,8v32c0,4.418,3.582,8,8,8
	h40c4.418,0,8-3.582,8-8V296z M320,232c0-4.418-3.582-8-8-8h-40c-4.418,0-8,3.582-8,8v32c0,4.418,3.582,8,8,8h40
	c4.418,0,8-3.582,8-8V232z M320,200c0-4.418-3.582-8-8-8h-40c-4.418,0-8,3.582-8,8s3.582,8,8,8h40C316.418,208,320,204.418,320,200z
	 M392,360c0-4.418-3.582-8-8-8h-40c-4.418,0-8,3.582-8,8v96c0,4.418,3.582,8,8,8h40c4.418,0,8-3.582,8-8V360z M392,296
	c0-4.418-3.582-8-8-8h-40c-4.418,0-8,3.582-8,8v32c0,4.418,3.582,8,8,8h40c4.418,0,8-3.582,8-8V296z M392,232c0-4.418-3.582-8-8-8
	h-40c-4.418,0-8,3.582-8,8v32c0,4.418,3.582,8,8,8h40c4.418,0,8-3.582,8-8V232z M392,200c0-4.418-3.582-8-8-8h-40
	c-4.418,0-8,3.582-8,8s3.582,8,8,8h40C388.418,208,392,204.418,392,200z M392,56c0-4.418-3.582-8-8-8H128c-4.418,0-8,3.582-8,8v112
	c0,4.418,3.582,8,8,8h256c4.418,0,8-3.582,8-8V56z M344,96h-16v32h16V96z M136,64h240v96H136V64z M312,136c0,4.418,3.582,8,8,8h32
	c4.418,0,8-3.582,8-8V88c0-4.418-3.582-8-8-8h-32c-4.418,0-8,3.582-8,8V136z M136,448h24v-16h-24V448z M352,320h24v-16h-24V320z"></path></svg>